<svg width="28" height="28" viewBox="0 0 28 28" fill="none" xmlns="http://www.w3.org/2000/svg">
  <g clip-path="url(#clip0)">
    <path
      d="
        M13.9999 0.000915527C6.28037 0.000915527 0 6.28116 0 14.0006C0 21.7201 6.28037
        28.0004 13.9999 28.0004C21.7195 28.0004 28 21.7201 28 14.0006C28 6.28116
        21.7195 0.000915527 13.9999 0.000915527ZM13.9999 26.2177C7.26325 26.2177
        1.78274 20.7372 1.78274 14.0006C1.78274 7.26405 7.26325 1.78366 13.9999
        1.78366C20.7366 1.78366 26.2173 7.26405 26.2173 14.0006C26.2173 20.7372
        20.7365 26.2177 13.9999 26.2177Z
      "
      fill="#4A5569"
    />
    <path
      d="
        M16.6192 8.11243C16.1268 8.11243 15.7278 8.5114 15.7278 9.0038V18.9962C15.7278
        19.4886 16.1268 19.8876 16.6192 19.8876C17.1116 19.8876 17.5106 19.4886
        17.5106 18.9962V9.0038C17.5106 8.5114 17.1116 8.11243 16.6192 8.11243Z
      "
      fill="#4A5569"
    />
    <path
      d="
        M11.3808 8.11243C10.8884 8.11243 10.4894 8.5114 10.4894 9.0038V18.9962C10.4894
        19.4886 10.8884 19.8876 11.3808 19.8876C11.8732 19.8876 12.2722 19.4886
        12.2722 18.9962V9.0038C12.2722 8.5114 11.8731 8.11243 11.3808 8.11243Z
      "
      fill="#4A5569"
    />
  </g>
  <defs>
    <clipPath id="clip0">
      <rect width="28" height="28" fill="white" />
    </clipPath>
  </defs>
</svg>