<svg width="28" height="28" viewBox="0 0 28 28" fill="none" xmlns="http://www.w3.org/2000/svg">
  <path
    d="
      M22.5712 11.4614L9.57896 3.45179C8.639 2.87304 7.50256 2.84898
      6.53892 3.38742C5.57529 3.92577 5 4.90637 5 6.01028V21.9565C5
      23.6257 6.34477 24.9909 7.99759 25C8.0021 25 8.00661 25
      8.01104 25C8.52755 25 9.0658 24.8381 9.56852 24.5313C9.97294
      24.2845 10.1008 23.7566 9.85401 23.3521C9.60727 22.9476
      9.07933 22.8198 8.67504 23.0666C8.4399 23.21 8.21026 23.2843
      8.00683 23.2842C7.38321 23.2808 6.7155 22.7465 6.7155
      21.9566V6.01032C6.7155 5.53676 6.96229 5.11623 7.3756
      4.88527C7.78896 4.65431 8.27638 4.66462 8.67908 4.9126L21.6714
      12.9222C22.0619 13.1627 22.2853 13.5636 22.2844
      14.0222C22.2835 14.4808 22.0584 14.8809 21.6657
      15.1205L12.2722 20.8727C11.8682 21.1201 11.7412 21.6482
      11.9886 22.0523C12.2359 22.4563 12.764 22.5833 13.168
      22.3359L22.5604 16.5845C23.4597 16.0358 23.9978 15.0793 24
      14.0257C24.0021 12.9722 23.4678 12.0135 22.5712 11.4614Z
    "
    fill="#4A5569"
  />
</svg>